<?xml version="1.0" encoding="utf-8"?>
<!-- Generator: Adobe Illustrator 25.2.3, SVG Export Plug-In . SVG Version: 6.00 Build 0)  -->
<svg version="1.1" xmlns="http://www.w3.org/2000/svg" xmlns:xlink="http://www.w3.org/1999/xlink" x="0px" y="0px"
	 viewBox="0 0 1190 840" style="enable-background:new 0 0 1190 840;" xml:space="preserve">
<style type="text/css">
	.st0{fill-rule:evenodd;clip-rule:evenodd;fill:none;}
	.st1{fill-rule:evenodd;clip-rule:evenodd;fill:#EBC82B;}
	.st2{fill-rule:evenodd;clip-rule:evenodd;fill:#C6C6C6;}
	.st3{fill-rule:evenodd;clip-rule:evenodd;fill:#888988;}
	.st4{fill-rule:evenodd;clip-rule:evenodd;fill:#797A7A;}
	.st5{display:none;fill-rule:evenodd;clip-rule:evenodd;fill:#E6E6E5;}
	.st6{display:none;fill:#206EA8;}
	.st7{font-family:'AdobeMingStd-Light-B5pc-H';}
	.st8{font-size:44.2205px;}
</style>
<g id="圖層_2">
	<rect class="st0" width="1190" height="840"/>
</g>
<g id="圖層_1">
	<g>
		<polygon class="st1" points="1270,839.36 1058.78,628.24 847.5,839.36 895.43,839.36 1058.78,676.09 1222.13,839.36 1270,839.36 
					"/>
		<path class="st2" d="M309.54,714.41l-33.68,33.62l33.68,33.62l33.69-33.62L309.54,714.41L309.54,714.41L309.54,714.41z
			 M309.54,699.07l49.14,48.96L309.54,797l-49.06-48.96L309.54,699.07L309.54,699.07L309.54,699.07z"/>
		<path class="st3" d="M204.77,750.8l50.98-51.03l-50.98-50.98l-51.03,50.98L204.77,750.8L204.77,750.8L204.77,750.8z
			 M204.77,774.16l-74.39-74.39l74.39-74.34l74.34,74.34L204.77,774.16L204.77,774.16L204.77,774.16z"/>
		<polygon class="st4" points="0.13,690.43 144.7,839.56 0.13,838.96 0.13,690.43 0.13,690.43 		"/>
		<polygon class="st3" points="936.66,1.07 1190.3,254.71 1190.3,1.07 936.66,1.07 		"/>
		<polygon class="st1" points="117.18,218.3 334.14,1.07 285.02,1.07 117.18,169.03 -50.76,1.07 -99.87,1.07 117.18,218.3 
			117.18,218.3 		"/>
		<polygon class="st2" points="265.56,162.54 204.34,101.5 265.56,40.25 327.01,101.5 265.56,162.54 265.56,162.54 		"/>
		<polygon class="st5" points="800.58,245.36 1150.58,245.36 1150.58,595.36 800.58,595.36 800.58,245.36 		"/>
		<polygon class="st5" points="420.58,245.36 770.58,245.36 770.58,595.36 420.58,595.36 420.58,245.36 		"/>
		<polygon class="st5" points="40.58,245.36 390.58,245.36 390.58,595.36 40.58,595.36 40.58,245.36 		"/>
	</g>
	<text transform="matrix(1 0 0 1 440.386 437.0601)" class="st6 st7 st8">滾滾長江東逝水</text>
</g>
</svg>
