<?xml version="1.0" encoding="utf-8"?>
<!-- Generator: Adobe Illustrator 25.2.3, SVG Export Plug-In . SVG Version: 6.00 Build 0)  -->
<svg version="1.1" xmlns="http://www.w3.org/2000/svg" xmlns:xlink="http://www.w3.org/1999/xlink" x="0px" y="0px"
	 viewBox="0 0 427.25 1053.69" style="enable-background:new 0 0 427.25 1053.69;" xml:space="preserve">
<style type="text/css">
	.st0{fill-rule:evenodd;clip-rule:evenodd;fill:none;}
	.st1{fill-rule:evenodd;clip-rule:evenodd;fill:#040000;}
	.st2{fill:#FFFFFF;}
	.st3{fill-rule:evenodd;clip-rule:evenodd;fill:#535353;}
</style>
<g id="圖層_2">
	<rect class="st0" width="315" height="630"/>
</g>
<g id="圖層_1">
	<g>
		<path class="st1" d="M254.92,43.7c3.75,0,3.7,7.24-0.15,7.24c-0.11,0-0.22-0.01-0.33-0.02h-85.24c-0.11,0.01-0.22,0.02-0.33,0.02
			c-3.85,0-3.91-7.24-0.15-7.24c0.16,0,0.32,0.02,0.49,0.04h85.24C254.6,43.71,254.76,43.7,254.92,43.7L254.92,43.7z M415.83,82.54
			v885.47H12.33V82.54H415.83L415.83,82.54z M92.31,1004.12l-0.18,2.69H76.17v-2.69H92.31L92.31,1004.12z M219.97,1004.57
			c0.36,0,0.73,0.45,0.73,1.12v15.48c0,0.45-0.36,0.9-0.9,0.9h-12.51c-0.55,0-0.91-0.45-0.91-0.9v-15.48c0-0.67,0.36-1.12,0.91-1.12
			H219.97z M333.22,1003.5c0.23,0,0.45,0.06,0.64,0.17c0.36,0.45,0.36,1.12,0,1.57l-5.8,7.17c-0.36,0.45-0.55,0.9-0.55,1.35
			c0,0.44,0.18,0.89,0.55,1.34l5.8,7.18c0.36,0.45,0.36,1.12,0,1.57c-0.18,0.22-0.41,0.34-0.64,0.34c-0.22,0-0.45-0.11-0.63-0.34
			l-5.81-7.17c-0.55-0.9-0.9-1.8-0.9-2.92c0-1.12,0.36-2.02,0.9-2.69l5.81-7.4C332.77,1003.56,333,1003.5,333.22,1003.5
			L333.22,1003.5z M63.83,0C28.65,0,0,35.44,0,78.95v895.79c0,43.51,28.65,78.95,63.83,78.95h299.58
			c35.18,0,63.84-35.44,63.84-78.95V78.95C427.25,35.44,398.6,0,363.42,0H63.83z"/>
		<rect x="49.08" y="988.2" class="st1" width="310.31" height="52.05"/>
		<rect x="13.06" y="79.74" class="st2" width="400" height="888"/>
		<path class="st3" d="M168.66,42.08c-3.76,0-3.71,6.67,0.15,6.67c0.11,0,0.22-0.01,0.34-0.02h85.47c0.11,0.01,0.22,0.02,0.34,0.02
			c3.86,0,3.91-6.67,0.15-6.67c-0.16,0-0.32,0.01-0.49,0.04h-85.47C168.98,42.1,168.82,42.08,168.66,42.08L168.66,42.08z"/>
	</g>
</g>
</svg>
