<?xml version="1.0" encoding="utf-8"?>
<!-- Generator: Adobe Illustrator 25.2.3, SVG Export Plug-In . SVG Version: 6.00 Build 0)  -->
<svg version="1.1" xmlns="http://www.w3.org/2000/svg" xmlns:xlink="http://www.w3.org/1999/xlink" x="0px" y="0px"
	 viewBox="0 0 1190 840" style="enable-background:new 0 0 1190 840;" xml:space="preserve">
<style type="text/css">
	.st0{fill-rule:evenodd;clip-rule:evenodd;fill:none;}
	.st1{fill-rule:evenodd;clip-rule:evenodd;fill:#F5CF1F;}
	.st2{fill-rule:evenodd;clip-rule:evenodd;fill:#797A7A;}
	.st3{fill-rule:evenodd;clip-rule:evenodd;fill:#C6C6C6;}
	.st4{fill-rule:evenodd;clip-rule:evenodd;fill:#E6E6E5;}
	.st5{fill-rule:evenodd;clip-rule:evenodd;fill:#888988;}
	.st6{display:none;fill-rule:evenodd;clip-rule:evenodd;fill:#076BAF;}
</style>
<g id="圖層_2">
	<rect class="st0" width="1190" height="840"/>
</g>
<g id="圖層_1">
	<g>
		<polygon class="st1" points="57.28,840 596.29,447.55 1133.37,840 1190,840 596.07,406 0,840 		"/>
		<polygon class="st2" points="1053.66,691.63 1129.74,746.99 1074.51,823.32 998.26,767.82 1053.66,691.63 1053.66,691.63 		"/>
		<path class="st3" d="M989.68,295.37l129.77,94.2l-94.31,129.69l-129.59-94.23L989.68,295.37L989.68,295.37L989.68,295.37z"/>
		<path class="st4" d="M166.41,544.68l94.25,129.73l-129.71,94.17L36.76,638.95L166.41,544.68L166.41,544.68L166.41,544.68z"/>
		<polygon class="st5" points="270.26,378.11 294.65,411.67 261.07,436.16 236.59,402.48 270.26,378.11 270.26,378.11 		"/>
		<polygon class="st5" points="206.13,280.11 261.36,356.12 185.31,411.59 129.88,335.3 206.13,280.11 206.13,280.11 		"/>
	</g>
	<circle class="st6" cx="595" cy="140" r="140"/>
</g>
</svg>
