<?xml version="1.0" encoding="utf-8"?>
<!-- Generator: Adobe Illustrator 25.2.3, SVG Export Plug-In . SVG Version: 6.00 Build 0)  -->
<svg version="1.1" xmlns="http://www.w3.org/2000/svg" xmlns:xlink="http://www.w3.org/1999/xlink" x="0px" y="0px"
	 viewBox="0 0 1190 840" style="enable-background:new 0 0 1190 840;" xml:space="preserve">
<style type="text/css">
	.st0{fill-rule:evenodd;clip-rule:evenodd;fill:none;}
	.st1{fill-rule:evenodd;clip-rule:evenodd;fill:#E6E6E5;}
	.st2{fill:#F5CF1F;}
	.st3{display:none;}
	.st4{display:inline;fill:#FFFFFF;}
	.st5{display:inline;fill-rule:evenodd;clip-rule:evenodd;fill:#040000;}
	.st6{display:inline;fill-rule:evenodd;clip-rule:evenodd;fill:#535353;}
	.st7{display:inline;fill-rule:evenodd;clip-rule:evenodd;fill:#FFFFFF;}
	.st8{display:none;fill:#206EA8;}
	.st9{font-family:'AdobeMingStd-Light-B5pc-H';}
	.st10{font-size:44.2205px;}
</style>
<g id="圖層_2">
	<rect class="st0" width="1190" height="840"/>
</g>
<g id="圖層_1">
	<g>
		<polygon class="st1" points="1190,172.73 0,172.73 0,726.24 1190,726.24 1190,172.73 		"/>
		<path class="st2" d="M1018.89,98.24h-580.5h-34.5h-0.5v34.5h0.5v633.5h-0.5v34.5h650v-2.5v-32v-633.5v-34.5H1018.89z
			 M1018.89,766.24h-580.5v-633.5h580.5V766.24z"/>
	</g>
	<g class="st3">
		<rect x="139.02" y="176.72" class="st4" width="316.64" height="544.65"/>
		<polygon class="st5" points="293.13,737.08 301.52,737.08 301.52,745.15 293.13,745.15 293.13,737.08 		"/>
		<path class="st5" d="M327.95,159.44c2.78,0,2.74,4.34-0.11,4.34c-0.08,0-0.17-0.01-0.25-0.01h-63.23
			c-0.08,0.01-0.17,0.01-0.25,0.01c-2.86,0-2.9-4.34-0.11-4.34c0.12,0,0.24,0.01,0.36,0.02h63.23
			C327.72,159.45,327.84,159.44,327.95,159.44L327.95,159.44z M447.32,182.73v531.05H148V182.73H447.32L447.32,182.73z
			 M207.33,735.43l-0.13,1.61h-11.84v-1.61H207.33L207.33,735.43z M302.03,735.7c0.27,0,0.54,0.27,0.54,0.67v9.28
			c0,0.27-0.27,0.54-0.67,0.54h-9.28c-0.4,0-0.67-0.27-0.67-0.54v-9.28c0-0.4,0.27-0.67,0.67-0.67H302.03z M386.04,735.06
			c0.17,0,0.34,0.03,0.47,0.1c0.27,0.27,0.27,0.67,0,0.94l-4.3,4.3c-0.27,0.27-0.4,0.54-0.4,0.81c0,0.27,0.13,0.54,0.4,0.81
			l4.3,4.31c0.27,0.27,0.27,0.67,0,0.94c-0.13,0.13-0.3,0.2-0.47,0.2c-0.17,0-0.33-0.07-0.47-0.2l-4.31-4.3
			c-0.4-0.54-0.67-1.08-0.67-1.75c0-0.67,0.27-1.21,0.67-1.61l4.31-4.44C385.7,735.09,385.87,735.06,386.04,735.06L386.04,735.06z
			 M186.21,133.23c-26.1,0-47.35,21.25-47.35,47.35v537.23c0,26.1,21.25,47.35,47.35,47.35h222.23c26.1,0,47.35-21.25,47.35-47.35
			V180.58c0-26.09-21.26-47.35-47.35-47.35H186.21z"/>
		<path class="st6" d="M263.97,159.69c-2.79,0-2.75,4.2,0.11,4.2c0.08,0,0.17-0.01,0.25-0.01h63.4c0.08,0.01,0.17,0.01,0.25,0.01
			c2.87,0,2.9-4.2,0.11-4.2c-0.12,0-0.24,0.01-0.36,0.02h-63.4C264.2,159.7,264.08,159.69,263.97,159.69L263.97,159.69z"/>
		<polygon class="st7" points="195.34,735.47 207.28,735.47 207.28,737.08 195.34,737.08 195.34,735.47 		"/>
		<path class="st7" d="M301.27,737.12v7.81h-8.22v-7.81H301.27L301.27,737.12z M292.51,735.79c-0.41,0-0.68,0.27-0.68,0.66v9.13
			c0,0.27,0.27,0.53,0.68,0.53h9.43c0.27,0,0.54-0.26,0.54-0.53v-9.13c0-0.39-0.27-0.66-0.54-0.66H292.51z"/>
		<path class="st7" d="M386.11,735.14c-0.15,0-0.32,0.07-0.45,0.2l-4.27,4.47c-0.53,0.4-0.8,0.95-0.66,1.62
			c-0.13,0.67,0.13,1.22,0.66,1.76l4.27,4.33c0.13,0.14,0.3,0.2,0.46,0.2c0.17,0,0.33-0.07,0.47-0.2c0.13-0.27,0.13-0.68,0-0.95
			l-4.4-4.33c-0.13-0.27-0.27-0.54-0.27-0.81c0-0.27,0.13-0.54,0.27-0.68l4.26-4.46c0.27-0.27,0.27-0.68,0-0.95
			C386.39,735.21,386.26,735.14,386.11,735.14L386.11,735.14z"/>
	</g>
	<text transform="matrix(1 0 0 1 577.5828 328.1362)" class="st8 st9 st10">滾滾長江東逝水</text>
</g>
</svg>
