<?xml version="1.0" encoding="utf-8"?>
<!-- Generator: Adobe Illustrator 25.2.3, SVG Export Plug-In . SVG Version: 6.00 Build 0)  -->
<svg version="1.1" xmlns="http://www.w3.org/2000/svg" xmlns:xlink="http://www.w3.org/1999/xlink" x="0px" y="0px"
	 viewBox="0 0 1190 840" style="enable-background:new 0 0 1190 840;" xml:space="preserve">
<style type="text/css">
	.st0{fill-rule:evenodd;clip-rule:evenodd;fill:none;}
	.st1{fill-rule:evenodd;clip-rule:evenodd;fill:#888988;}
	.st2{fill-rule:evenodd;clip-rule:evenodd;fill:#797A7A;}
	.st3{fill-rule:evenodd;clip-rule:evenodd;fill:#F5CF1F;}
	.st4{fill:#F5CF1F;}
	.st5{fill-rule:evenodd;clip-rule:evenodd;fill:#727171;}
	.st6{display:none;fill-rule:evenodd;clip-rule:evenodd;fill:#E6E6E5;}
	.st7{display:none;fill:#206EA8;}
	.st8{font-family:'AdobeMingStd-Light-B5pc-H';}
	.st9{font-size:44.2205px;}
</style>
<g id="圖層_2">
	<rect class="st0" width="1190" height="840"/>
</g>
<g id="圖層_1">
	<g>
		<path class="st1" d="M1083.57,653.76l-33.68,33.62l33.68,33.62l33.69-33.62L1083.57,653.76L1083.57,653.76L1083.57,653.76z
			 M1083.57,638.42l49.14,48.96l-49.14,48.96l-49.06-48.96L1083.57,638.42L1083.57,638.42L1083.57,638.42z"/>
		<polygon class="st2" points="888.25,660.52 961.14,733.4 888.25,806.45 815.2,733.4 888.25,660.52 888.25,660.52 		"/>
		<polygon class="st3" points="1190,405.19 1190,448.99 904.11,734.8 1009.26,840 965.45,840 860.21,734.8 1190,405.19 1190,405.19 
					"/>
		<path class="st1" d="M370.02,590.42l74.63,74.36l-74.63,74.36l-74.5-74.36L370.02,590.42L370.02,590.42L370.02,590.42z"/>
		<polygon class="st4" points="0,526.57 0,575.75 264.25,840 313.43,840 		"/>
		<polygon class="st5" points="81.12,759.34 162.41,840 144.07,840 81.12,777.69 18.33,840 0,840 81.12,759.34 81.12,759.34 		"/>
		<polygon class="st3" points="884.3,0 596.29,210.45 307.25,0 249.97,0 596.07,252 940.93,0 		"/>
		<polygon class="st6" points="100,221.16 1090,221.16 1090,520.49 100,520.49 100,221.16 		"/>
	</g>
	<text transform="matrix(1 0 0 1 461.2676 360.4004)" class="st7 st8 st9">滾滾長江東逝水</text>
</g>
</svg>
